<?xml version="1.0" encoding="UTF-8"?>
<svg xmlns="http://www.w3.org/2000/svg" width="4096" height="4096" viewBox="0 0 4096 4096">
<title>SKG Barber Club Logo - 4K Vector</title>
<rect width="100%" height="100%" fill="#000000"/>
<g transform="translate(627.127,1972.064) scale(13.280049,-13.280049)"><path d="M56.156 48.391 L56.156 64.406 C50.047 69.281 41.656 72.219 30.719 72.078 C15.922 71.875 5.562 63.812 5.562 52.297 C5.562 40.625 13.766 34.719 30.609 29.828 C40.328 26.906 43.703 24.031 43.703 18.562 C43.703 13.234 39.500 9.766 31.734 9.766 C25.688 9.766 20.172 11.469 17.281 13.922 L15.766 24.031 L4.734 24.031 L4.734 6.844 C13.031 1.031 21.297 -1.031 31.734 -1.031 C47.516 -1.031 58.016 6.500 58.016 18.656 C58.016 30.328 49.750 37.062 34.078 41.406 C23.141 44.875 19.781 47.406 19.781 52.250 C19.781 57.469 24.609 61.078 31.453 61.078 C36.766 61.078 41.109 59.719 43.609 58.156 L45.453 48.391 L56.156 48.391 Z M66.016 8.547 L66.016 0.000 L95.062 0.000 L95.062 8.547 L87.844 10.016 L87.844 30.078 L96.094 30.078 L113.766 9.125 L113.719 9.125 L107.078 8.547 L107.078 0.000 L138.141 0.000 L138.141 8.547 L131.156 9.766 L107.422 37.641 L127.438 61.188 L134.125 62.500 L134.125 71.094 L105.953 71.094 L105.953 62.500 L112.938 61.922 L112.844 61.766 L95.750 41.938 L87.844 41.938 L87.844 61.031 L95.062 62.500 L95.062 71.094 L66.016 71.094 L66.016 62.500 L73.578 61.031 L73.578 10.016 L66.016 8.547 Z M208.047 6.453 L208.047 35.203 L183.594 35.203 L183.594 25.203 L193.750 24.422 L193.750 12.359 C191.750 11.031 187.344 9.906 181.641 9.906 C168.891 9.906 161.906 19.234 161.906 33.688 L161.906 36.234 C161.906 51.078 169.141 61.141 181.094 61.141 C186.625 61.141 191.016 59.672 193.594 57.469 L195.609 47.953 L206.156 47.953 L206.156 63.719 C199.609 69.281 190.531 72.125 179.391 72.125 C160.734 72.125 147.703 57.422 147.703 36.141 L147.703 33.688 C147.703 13.141 160.984 -1.031 180.172 -1.031 C193.703 -1.031 202.438 1.953 208.047 6.453 Z" fill="#EDE7D8"/></g>
<rect x="715" y="2295" width="2666" height="58" fill="#EDE7D8"/>
<g transform="translate(690.649,2865.359) scale(3.383705,-3.383705)"><path d="M51.469 20.953 Q51.469 10.547 45.969 5.297 Q40.484 0.047 29.438 0.000 L5.719 0.000 L5.719 71.094 L27.688 71.094 Q38.328 71.094 44.359 66.328 Q50.391 61.578 50.391 51.609 Q50.391 46.781 48.266 42.719 Q46.141 38.672 41.453 36.625 Q46.922 35.062 49.188 30.562 Q51.469 26.078 51.469 20.953 Z M20.125 59.125 L20.125 41.359 L27.547 41.359 Q35.984 41.359 35.984 50.094 Q35.984 58.938 28.031 59.125 L20.125 59.125 Z M37.109 21.094 Q37.109 30.672 30.328 30.953 L20.125 30.953 L20.125 11.922 L29.250 11.922 Q33.453 11.922 35.281 14.531 Q37.109 17.141 37.109 21.094 Z M74.828 0.000 L97.047 71.094 L110.172 71.094 L132.547 0.000 L117.250 0.000 L113.453 14.547 L93.875 14.547 L90.062 0.000 L74.828 0.000 Z M97.000 26.516 L110.328 26.516 L103.641 51.906 L97.000 26.516 Z M197.453 0.000 L186.766 25.984 L179.641 25.984 L179.641 0.000 L165.234 0.000 L165.234 71.094 L188.125 71.094 Q198.781 71.094 204.734 65.594 Q210.688 60.109 210.688 49.609 Q210.688 41.891 207.953 37.156 Q205.219 32.422 200.391 29.828 L212.891 0.688 L212.891 0.000 L197.453 0.000 Z M179.641 59.125 L179.641 37.938 L187.734 37.938 Q192.031 37.938 194.172 40.797 Q196.328 43.656 196.328 48.438 Q196.328 58.938 188.422 59.125 L179.641 59.125 Z M286.594 20.953 Q286.594 10.547 281.094 5.297 Q275.609 0.047 264.562 0.000 L240.844 0.000 L240.844 71.094 L262.812 71.094 Q273.453 71.094 279.484 66.328 Q285.516 61.578 285.516 51.609 Q285.516 46.781 283.391 42.719 Q281.266 38.672 276.578 36.625 Q282.047 35.062 284.312 30.562 Q286.594 26.078 286.594 20.953 Z M255.250 59.125 L255.250 41.359 L262.672 41.359 Q271.109 41.359 271.109 50.094 Q271.109 58.938 263.156 59.125 L255.250 59.125 Z M272.234 21.094 Q272.234 30.672 265.453 30.953 L255.250 30.953 L255.250 11.922 L264.375 11.922 Q268.578 11.922 270.406 14.531 Q272.234 17.141 272.234 21.094 Z M314.594 0.000 L314.594 71.094 L355.312 71.094 L355.312 59.125 L329.000 59.125 L329.000 42.328 L351.312 42.328 L351.312 30.766 L329.000 30.766 L329.000 11.922 L355.406 11.922 L355.406 0.000 L314.594 0.000 Z M415.672 0.000 L404.984 25.984 L397.859 25.984 L397.859 0.000 L383.453 0.000 L383.453 71.094 L406.344 71.094 Q417.000 71.094 422.953 65.594 Q428.906 60.109 428.906 49.609 Q428.906 41.891 426.172 37.156 Q423.438 32.422 418.609 29.828 L431.109 0.688 L431.109 0.000 L415.672 0.000 Z M397.859 59.125 L397.859 37.938 L405.953 37.938 Q410.250 37.938 412.391 40.797 Q414.547 43.656 414.547 48.438 Q414.547 58.938 406.641 59.125 L397.859 59.125 Z M565.891 23.734 L580.250 23.734 Q579.766 11.625 573.406 5.312 Q567.062 -0.984 555.641 -0.984 Q543.922 -0.984 537.422 6.688 Q530.938 14.359 530.781 28.812 L530.781 41.547 Q530.781 56.453 537.500 64.281 Q544.219 72.125 555.828 72.125 Q567.453 72.125 573.500 65.594 Q579.562 59.078 580.344 46.969 L566.000 46.969 Q565.750 54.594 563.594 57.391 Q561.453 60.203 555.844 60.203 Q550.312 60.203 547.766 56.250 Q545.234 52.297 545.141 42.438 L545.141 29.500 Q545.141 19.438 547.328 15.188 Q549.531 10.938 555.641 10.938 Q560.969 10.938 563.312 13.469 Q565.656 16.016 565.891 23.734 Z M649.172 11.922 L649.172 0.000 L609.625 0.000 L609.625 71.094 L624.031 71.094 L624.031 11.922 L649.172 11.922 Z M709.047 71.094 L723.453 71.094 L723.453 22.312 Q723.453 9.969 716.859 4.484 Q710.266 -0.984 700.062 -0.984 Q689.719 -0.984 683.172 4.484 Q676.625 9.969 676.625 22.312 L676.625 71.094 L691.031 71.094 L691.031 22.312 Q691.031 15.328 693.344 13.125 Q695.672 10.938 700.062 10.938 Q704.516 10.938 706.781 13.125 Q709.047 15.328 709.047 22.312 L709.047 71.094 Z M797.750 20.953 Q797.750 10.547 792.250 5.297 Q786.766 0.047 775.719 0.000 L752.000 0.000 L752.000 71.094 L773.969 71.094 Q784.609 71.094 790.641 66.328 Q796.672 61.578 796.672 51.609 Q796.672 46.781 794.547 42.719 Q792.422 38.672 787.734 36.625 Q793.203 35.062 795.469 30.562 Q797.750 26.078 797.750 20.953 Z M766.406 59.125 L766.406 41.359 L773.828 41.359 Q782.266 41.359 782.266 50.094 Q782.266 58.938 774.312 59.125 L766.406 59.125 Z M783.391 21.094 Q783.391 30.672 776.609 30.953 L766.406 30.953 L766.406 11.922 L775.531 11.922 Q779.734 11.922 781.562 14.531 Q783.391 17.141 783.391 21.094 Z" fill="#EDE7D8"/></g>
</svg>
